<mxfile host="65bd71144e">
    <diagram id="MT0ljfs0QGEoqNQh9BpD" name="Page-1">
        <mxGraphModel dx="2450" dy="766" grid="1" gridSize="10" guides="1" tooltips="1" connect="1" arrows="1" fold="1" page="1" pageScale="1" pageWidth="850" pageHeight="1100" math="0" shadow="0">
            <root>
                <mxCell id="0"/>
                <mxCell id="1" parent="0"/>
                <mxCell id="2" value="Paitient" style="shape=table;startSize=30;container=1;collapsible=0;childLayout=tableLayout;" vertex="1" parent="1">
                    <mxGeometry x="-320" y="40" width="370" height="310" as="geometry"/>
                </mxCell>
                <mxCell id="3" value="" style="shape=tableRow;horizontal=0;startSize=0;swimlaneHead=0;swimlaneBody=0;top=0;left=0;bottom=0;right=0;collapsible=0;dropTarget=0;fillColor=none;points=[[0,0.5],[1,0.5]];portConstraint=eastwest;" vertex="1" parent="2">
                    <mxGeometry y="30" width="370" height="56" as="geometry"/>
                </mxCell>
                <mxCell id="4" value="id" style="shape=partialRectangle;html=1;whiteSpace=wrap;connectable=0;overflow=hidden;fillColor=none;top=0;left=0;bottom=0;right=0;pointerEvents=1;" vertex="1" parent="3">
                    <mxGeometry width="185" height="56" as="geometry">
                        <mxRectangle width="185" height="56" as="alternateBounds"/>
                    </mxGeometry>
                </mxCell>
                <mxCell id="5" value="num" style="shape=partialRectangle;html=1;whiteSpace=wrap;connectable=0;overflow=hidden;fillColor=none;top=0;left=0;bottom=0;right=0;pointerEvents=1;" vertex="1" parent="3">
                    <mxGeometry x="185" width="185" height="56" as="geometry">
                        <mxRectangle width="185" height="56" as="alternateBounds"/>
                    </mxGeometry>
                </mxCell>
                <mxCell id="6" value="" style="shape=tableRow;horizontal=0;startSize=0;swimlaneHead=0;swimlaneBody=0;top=0;left=0;bottom=0;right=0;collapsible=0;dropTarget=0;fillColor=none;points=[[0,0.5],[1,0.5]];portConstraint=eastwest;" vertex="1" parent="2">
                    <mxGeometry y="86" width="370" height="56" as="geometry"/>
                </mxCell>
                <mxCell id="7" value="first_name" style="shape=partialRectangle;html=1;whiteSpace=wrap;connectable=0;overflow=hidden;fillColor=none;top=0;left=0;bottom=0;right=0;pointerEvents=1;" vertex="1" parent="6">
                    <mxGeometry width="185" height="56" as="geometry">
                        <mxRectangle width="185" height="56" as="alternateBounds"/>
                    </mxGeometry>
                </mxCell>
                <mxCell id="8" value="string" style="shape=partialRectangle;html=1;whiteSpace=wrap;connectable=0;overflow=hidden;fillColor=none;top=0;left=0;bottom=0;right=0;pointerEvents=1;" vertex="1" parent="6">
                    <mxGeometry x="185" width="185" height="56" as="geometry">
                        <mxRectangle width="185" height="56" as="alternateBounds"/>
                    </mxGeometry>
                </mxCell>
                <mxCell id="9" value="" style="shape=tableRow;horizontal=0;startSize=0;swimlaneHead=0;swimlaneBody=0;top=0;left=0;bottom=0;right=0;collapsible=0;dropTarget=0;fillColor=none;points=[[0,0.5],[1,0.5]];portConstraint=eastwest;" vertex="1" parent="2">
                    <mxGeometry y="142" width="370" height="56" as="geometry"/>
                </mxCell>
                <mxCell id="10" value="last_name" style="shape=partialRectangle;html=1;whiteSpace=wrap;connectable=0;overflow=hidden;fillColor=none;top=0;left=0;bottom=0;right=0;pointerEvents=1;" vertex="1" parent="9">
                    <mxGeometry width="185" height="56" as="geometry">
                        <mxRectangle width="185" height="56" as="alternateBounds"/>
                    </mxGeometry>
                </mxCell>
                <mxCell id="11" value="string" style="shape=partialRectangle;html=1;whiteSpace=wrap;connectable=0;overflow=hidden;fillColor=none;top=0;left=0;bottom=0;right=0;pointerEvents=1;" vertex="1" parent="9">
                    <mxGeometry x="185" width="185" height="56" as="geometry">
                        <mxRectangle width="185" height="56" as="alternateBounds"/>
                    </mxGeometry>
                </mxCell>
                <mxCell id="12" value="" style="shape=tableRow;horizontal=0;startSize=0;swimlaneHead=0;swimlaneBody=0;top=0;left=0;bottom=0;right=0;collapsible=0;dropTarget=0;fillColor=none;points=[[0,0.5],[1,0.5]];portConstraint=eastwest;" vertex="1" parent="2">
                    <mxGeometry y="198" width="370" height="56" as="geometry"/>
                </mxCell>
                <mxCell id="13" value="email" style="shape=partialRectangle;html=1;whiteSpace=wrap;connectable=0;overflow=hidden;fillColor=none;top=0;left=0;bottom=0;right=0;pointerEvents=1;" vertex="1" parent="12">
                    <mxGeometry width="185" height="56" as="geometry">
                        <mxRectangle width="185" height="56" as="alternateBounds"/>
                    </mxGeometry>
                </mxCell>
                <mxCell id="14" value="string" style="shape=partialRectangle;html=1;whiteSpace=wrap;connectable=0;overflow=hidden;fillColor=none;top=0;left=0;bottom=0;right=0;pointerEvents=1;" vertex="1" parent="12">
                    <mxGeometry x="185" width="185" height="56" as="geometry">
                        <mxRectangle width="185" height="56" as="alternateBounds"/>
                    </mxGeometry>
                </mxCell>
                <mxCell id="15" value="" style="shape=tableRow;horizontal=0;startSize=0;swimlaneHead=0;swimlaneBody=0;top=0;left=0;bottom=0;right=0;collapsible=0;dropTarget=0;fillColor=none;points=[[0,0.5],[1,0.5]];portConstraint=eastwest;" vertex="1" parent="2">
                    <mxGeometry y="254" width="370" height="56" as="geometry"/>
                </mxCell>
                <mxCell id="16" value="medical_record_id" style="shape=partialRectangle;html=1;whiteSpace=wrap;connectable=0;overflow=hidden;fillColor=none;top=0;left=0;bottom=0;right=0;pointerEvents=1;" vertex="1" parent="15">
                    <mxGeometry width="185" height="56" as="geometry">
                        <mxRectangle width="185" height="56" as="alternateBounds"/>
                    </mxGeometry>
                </mxCell>
                <mxCell id="17" value="num" style="shape=partialRectangle;html=1;whiteSpace=wrap;connectable=0;overflow=hidden;fillColor=none;top=0;left=0;bottom=0;right=0;pointerEvents=1;" vertex="1" parent="15">
                    <mxGeometry x="185" width="185" height="56" as="geometry">
                        <mxRectangle width="185" height="56" as="alternateBounds"/>
                    </mxGeometry>
                </mxCell>
                <mxCell id="18" value="Medical_Record" style="shape=table;startSize=30;container=1;collapsible=0;childLayout=tableLayout;" vertex="1" parent="1">
                    <mxGeometry x="380" y="450" width="370" height="254" as="geometry"/>
                </mxCell>
                <mxCell id="19" value="" style="shape=tableRow;horizontal=0;startSize=0;swimlaneHead=0;swimlaneBody=0;top=0;left=0;bottom=0;right=0;collapsible=0;dropTarget=0;fillColor=none;points=[[0,0.5],[1,0.5]];portConstraint=eastwest;" vertex="1" parent="18">
                    <mxGeometry y="30" width="370" height="56" as="geometry"/>
                </mxCell>
                <mxCell id="20" value="id" style="shape=partialRectangle;html=1;whiteSpace=wrap;connectable=0;overflow=hidden;fillColor=none;top=0;left=0;bottom=0;right=0;pointerEvents=1;" vertex="1" parent="19">
                    <mxGeometry width="185" height="56" as="geometry">
                        <mxRectangle width="185" height="56" as="alternateBounds"/>
                    </mxGeometry>
                </mxCell>
                <mxCell id="21" value="num" style="shape=partialRectangle;html=1;whiteSpace=wrap;connectable=0;overflow=hidden;fillColor=none;top=0;left=0;bottom=0;right=0;pointerEvents=1;" vertex="1" parent="19">
                    <mxGeometry x="185" width="185" height="56" as="geometry">
                        <mxRectangle width="185" height="56" as="alternateBounds"/>
                    </mxGeometry>
                </mxCell>
                <mxCell id="22" value="" style="shape=tableRow;horizontal=0;startSize=0;swimlaneHead=0;swimlaneBody=0;top=0;left=0;bottom=0;right=0;collapsible=0;dropTarget=0;fillColor=none;points=[[0,0.5],[1,0.5]];portConstraint=eastwest;" vertex="1" parent="18">
                    <mxGeometry y="86" width="370" height="56" as="geometry"/>
                </mxCell>
                <mxCell id="23" value="diagnosis" style="shape=partialRectangle;html=1;whiteSpace=wrap;connectable=0;overflow=hidden;fillColor=none;top=0;left=0;bottom=0;right=0;pointerEvents=1;" vertex="1" parent="22">
                    <mxGeometry width="185" height="56" as="geometry">
                        <mxRectangle width="185" height="56" as="alternateBounds"/>
                    </mxGeometry>
                </mxCell>
                <mxCell id="24" value="string" style="shape=partialRectangle;html=1;whiteSpace=wrap;connectable=0;overflow=hidden;fillColor=none;top=0;left=0;bottom=0;right=0;pointerEvents=1;" vertex="1" parent="22">
                    <mxGeometry x="185" width="185" height="56" as="geometry">
                        <mxRectangle width="185" height="56" as="alternateBounds"/>
                    </mxGeometry>
                </mxCell>
                <mxCell id="25" value="" style="shape=tableRow;horizontal=0;startSize=0;swimlaneHead=0;swimlaneBody=0;top=0;left=0;bottom=0;right=0;collapsible=0;dropTarget=0;fillColor=none;points=[[0,0.5],[1,0.5]];portConstraint=eastwest;" vertex="1" parent="18">
                    <mxGeometry y="142" width="370" height="56" as="geometry"/>
                </mxCell>
                <mxCell id="26" value="treatment" style="shape=partialRectangle;html=1;whiteSpace=wrap;connectable=0;overflow=hidden;fillColor=none;top=0;left=0;bottom=0;right=0;pointerEvents=1;" vertex="1" parent="25">
                    <mxGeometry width="185" height="56" as="geometry">
                        <mxRectangle width="185" height="56" as="alternateBounds"/>
                    </mxGeometry>
                </mxCell>
                <mxCell id="27" value="string" style="shape=partialRectangle;html=1;whiteSpace=wrap;connectable=0;overflow=hidden;fillColor=none;top=0;left=0;bottom=0;right=0;pointerEvents=1;" vertex="1" parent="25">
                    <mxGeometry x="185" width="185" height="56" as="geometry">
                        <mxRectangle width="185" height="56" as="alternateBounds"/>
                    </mxGeometry>
                </mxCell>
                <mxCell id="28" value="" style="shape=tableRow;horizontal=0;startSize=0;swimlaneHead=0;swimlaneBody=0;top=0;left=0;bottom=0;right=0;collapsible=0;dropTarget=0;fillColor=none;points=[[0,0.5],[1,0.5]];portConstraint=eastwest;" vertex="1" parent="18">
                    <mxGeometry y="198" width="370" height="56" as="geometry"/>
                </mxCell>
                <mxCell id="29" value="paitient_id" style="shape=partialRectangle;html=1;whiteSpace=wrap;connectable=0;overflow=hidden;fillColor=none;top=0;left=0;bottom=0;right=0;pointerEvents=1;" vertex="1" parent="28">
                    <mxGeometry width="185" height="56" as="geometry">
                        <mxRectangle width="185" height="56" as="alternateBounds"/>
                    </mxGeometry>
                </mxCell>
                <mxCell id="30" value="num" style="shape=partialRectangle;html=1;whiteSpace=wrap;connectable=0;overflow=hidden;fillColor=none;top=0;left=0;bottom=0;right=0;pointerEvents=1;" vertex="1" parent="28">
                    <mxGeometry x="185" width="185" height="56" as="geometry">
                        <mxRectangle width="185" height="56" as="alternateBounds"/>
                    </mxGeometry>
                </mxCell>
                <mxCell id="48" value="" style="edgeStyle=entityRelationEdgeStyle;fontSize=12;html=1;endArrow=ERmandOne;startArrow=ERmandOne;" edge="1" parent="1" source="2" target="18">
                    <mxGeometry width="100" height="100" relative="1" as="geometry">
                        <mxPoint x="390" y="250" as="sourcePoint"/>
                        <mxPoint x="490" y="150" as="targetPoint"/>
                    </mxGeometry>
                </mxCell>
            </root>
        </mxGraphModel>
    </diagram>
</mxfile>